<?xml version="1.0" encoding="UTF-8" standalone="no"?>
<svg
   xmlns:dc="http://purl.org/dc/elements/1.1/"
   xmlns:cc="http://creativecommons.org/ns#"
   xmlns:rdf="http://www.w3.org/1999/02/22-rdf-syntax-ns#"
   xmlns:svg="http://www.w3.org/2000/svg"
   xmlns="http://www.w3.org/2000/svg"
   id="svg8"
   version="1.1"
   viewBox="0 0 103.82362 135.86736"
   height="135.86736mm"
   width="103.82362mm">
  <defs
     id="defs2" />
  <metadata
     id="metadata5">
    <rdf:RDF>
      <cc:Work
         rdf:about="">
        <dc:format>image/svg+xml</dc:format>
        <dc:type
           rdf:resource="http://purl.org/dc/dcmitype/StillImage" />
        <dc:title></dc:title>
      </cc:Work>
    </rdf:RDF>
  </metadata>
  <g
     transform="translate(80.137351,-36.927838)"
     id="layer1">
    <path
       id="path826"
       d="m -26.76603,36.927838 c -7.269737,0 -13.665981,5.394062 -19.965188,8.928652 -6.299208,3.534603 -9.326544,14.13955 -14.090613,20.459735 -0.148879,0.197506 -0.874017,1.585901 -0.784966,2.350243 0.98751,0.102886 1.60922,0.110675 3.042708,0.457338 1.854227,0.44841 3.080999,1.601427 3.768762,2.026748 -1.303377,-0.0754 -7.998944,0.01986 -8.7328,0.1695 -1.89434,0.386275 -4.785535,1.51044 -5.935038,2.141987 -1.515589,0.832681 -2.976105,1.712227 -4.237466,2.973461 -1.261375,1.261237 -2.388352,2.773318 -3.431834,4.476732 -0.03516,0.0574 -1.200539,2.868633 -1.998845,5.868892 -0.814705,3.061896 -1.253141,6.251887 -0.859896,6.554121 0.786498,0.604467 2.718539,-6.269575 7.036263,-10.677901 1.975287,-2.016733 6.747796,-4.545764 10.009209,-5.487003 3.259082,-0.940573 6.699371,-1.020268 9.282639,-0.987536 1.291632,0.01635 3.073214,-0.101703 3.840075,0.0036 0,0 -0.01021,0.665464 10e-4,0.78083 0.04495,0.461454 -3.927012,-0.201689 -8.092014,0.442868 -4.165005,0.644554 -8.423876,2.530369 -10.25002,3.842141 -3.524863,2.532012 -6.894827,5.415378 -9.257315,8.909018 -0.784193,1.15965 -1.100288,2.903302 -2.288233,4.797639 -0.539726,4.909188 -0.0017,6.823237 0.02946,11.645277 0.0019,0.29817 5.990685,-0.77845 12.395107,-4.86533 6.404425,-4.086896 11.634441,-9.687397 12.924793,-11.327473 2.970797,1.459106 -10.532772,14.019463 -12.067998,14.867823 -1.765131,0.9754 -9.243414,4.08278 -10.244336,5.00641 -1.714127,1.58178 -1.738423,9.0862 -1.642792,11.33574 0.186107,4.37779 0.720349,8.43878 1.863968,12.36721 2.287238,7.85686 4.32993,15.18381 8.591206,20.83748 4.261276,5.65368 10.273287,9.63428 16.195395,12.669 5.922107,3.03472 11.473793,4.37537 19.024161,5.12372 3.617144,0.35851 8.393793,0.14152 12.55944,-0.38809 3.483988,-0.44295 6.649275,-1.12275 9.84126,-2.16887 3.4658247,-1.13584 6.1948697,-2.38119 10.0061067,-4.4266 3.569009,-1.91542 4.710544,-3.05955 8.378817,-6.03839 2.8929673,-2.34926 5.8928843,-5.22992 7.7633503,-8.68836 1.870468,-3.45843 3.199304,-6.25345 4.513937,-10.22573 1.314629,-3.97228 2.05391,-7.5316 2.745052,-11.95844 0.691142,-4.42685 0.492476,-9.62763 0.492476,-14.44976 -0.488484,-4.5722 -0.205729,-5.96303 -1.084172,-13.32374 -0.425675,-2.432977 -0.789022,-4.883473 -1.198893,-7.654825 -0.442077,-2.989096 -1.088369,-4.436843 -1.502233,-6.630601 0,0 -0.729413,1.641877 -1.998845,2.446877 -1.476312,0.936194 -3.414671,2.071595 -5.04517,0.789617 -1.640579,-1.289904 -5.4004143,-4.142573 -7.2429693,-5.347478 -3.57334,-2.336718 -6.27713,-3.813757 -10.145634,-4.979024 -3.132453,-0.943554 -6.3082677,-2.264749 -6.0048007,-2.336808 3.0758837,-0.730414 13.9149547,-0.248576 15.0936517,0.04496 3.859113,0.961051 7.7845063,2.799424 9.2061563,2.888713 2.154493,0.135316 4.568288,-1.853221 5.894731,-2.898013 1.823062,-1.435968 3.6096,-1.807644 3.6096,-1.807644 -0.0074,-0.577752 -0.46472,-1.404395 -2.484604,-3.604948 -0.974397,-1.061553 -3.070859,-0.903528 -5.131986,-1.131713 -4.375214,-0.484375 -3.049249,-0.651835 -6.7515263,-1.080037 -3.457333,-0.39987 -6.609396,0.08927 -7.933883,0.294556 -1.342166,0.208023 -5.052841,2.152639 -6.400643,2.108398 -1.727247,-0.05669 1.330967,-1.917263 2.580721,-2.522326 1.50773,-0.729961 4.299096,-2.045136 6.965466,-2.371431 2.029533,-0.248362 9.7126483,2.14294 11.0861453,1.266589 0.544789,-0.347599 0.784687,0.270331 1.061434,-2.289267 0.193933,-1.793658 -0.396675,-3.140943 -1.342037,-3.153812 -1.981246,-0.02698 -2.706936,0.790265 -4.111376,0.930177 -2.3302923,0.232148 -4.8138573,-0.360619 -9.1580633,-1.427821 -0.346921,-0.08523 2.848525,-1.001393 3.509347,-0.780831 0.601117,0.200628 5.2305013,1.430285 5.6342813,1.179256 0.40378,-0.251029 1.477126,-0.791998 1.316716,-1.487247 0,0 -3.6672903,-1.250944 -4.3387543,-2.143022 -0.671468,-0.892062 -2.370721,-2.134849 -2.966231,-2.924871 -4.764076,-6.320182 -4.616404,-5.944923 -9.989571,-10.20713 C -10.872263,41.632206 -19.496295,36.927838 -26.76603,36.927838 Z M 6.2376397,96.78775 c 1.0009,0.01544 3.272518,0.14171 5.4317093,0.904853 2.878922,1.01752 5.557911,3.167307 6.609933,4.521167 4.85725,6.2509 3.902604,18.12396 3.902604,18.12396 0,0 -2.395154,-9.37534 -4.630208,-13.82448 -2.586488,-5.14871 -11.8401043,-9.723434 -11.8401043,-9.723434 0,0 0.192432,-0.0072 0.526066,-0.0021 z m -53.9414107,0.780314 0.697116,0.0155 c 0,0 1.146527,4.718406 1.02526,8.268226 -1.069813,6.20363 -2.119055,7.73906 -5.721614,13.03073 0,0 3.118794,-8.22926 4.116028,-11.84786 0.960286,-3.48452 -0.11679,-9.466598 -0.11679,-9.466598 z m 50.4000247,2.521806 c 5.192377,0.0941 10.5604563,3.37481 14.2575273,10.43709 3.194679,9.42938 3.788954,14.0491 2.30942,23.42182 -7.653461,-1.6655 -13.6595213,-5.63 -18.0696983,-14.83113 -4.295388,-8.96165 -5.488186,-17.22484 -2.777091,-18.37046 1.385718,-0.46024 2.825976,-0.68367 4.279842,-0.65732 z m -8.692493,10.12755 c 3.119403,10.98021 3.334368,16.49277 7.276042,20.17448 3.119828,2.91406 13.3491363,6.09087 16.3721273,6.42441 -0.416592,2.91324 -3.76607,7.53236 -7.8393153,7.53236 -8.14649,0 -18.851565,-7.6989 -18.851562,-15.80886 3e-6,-8.10995 0.584764,-10.38489 3.042708,-18.32239 z m -46.8973947,9.59114 c 0,0 -2.591739,6.39442 -3.042708,14.58516 -0.235665,4.28027 4.866034,13.8547 9.745141,9.01443 2.443781,-2.42432 4.916585,-4.86439 9.57771,-8.09459 1.465802,-1.01582 4.280144,-0.85327 6.055961,0.20051 0.719398,0.42689 3.172337,-3.49984 2.137854,-6.87142 -0.51724,-1.68578 -4.155456,-2.1744 -5.547466,-2.96933 l -0.0088,-3.21892 c 0,0 6.075126,2.0428 7.242969,5.82083 1.398667,4.52475 -3.935677,9.78958 -3.935677,9.78958 0,0 -3.012409,2.29289 -4.464844,3.50573 -3.518583,2.93814 -6.416855,6.44378 -10.285677,9.12813 -2.857831,0.0815 -6.424046,-0.79961 -9.082132,-3.28301 -2.658087,-2.48339 -3.799171,-6.05527 -4.345472,-8.82168 -0.606134,-3.3531 1.18128,-15.36471 5.953125,-18.78542 z"
       style="opacity:1;fill:#d1172c;fill-opacity:1;stroke:none;stroke-width:11.61100006;stroke-linejoin:round;stroke-miterlimit:4;stroke-dasharray:none;stroke-opacity:1;paint-order:normal" />
  </g>
</svg>
